<mxfile host="Electron" agent="Mozilla/5.0 (X11; Linux x86_64) AppleWebKit/537.36 (KHTML, like Gecko) draw.io/26.2.2 Chrome/134.0.6998.178 Electron/35.1.2 Safari/537.36" scale="1" border="0" version="26.2.2">
  <diagram name="Page-1" id="rISaZnfHqlBSePmNcUNR">
    <mxGraphModel dx="1362" dy="963" grid="1" gridSize="10" guides="1" tooltips="1" connect="1" arrows="1" fold="1" page="1" pageScale="1" pageWidth="850" pageHeight="1100" math="0" shadow="0">
      <root>
        <mxCell id="0" />
        <mxCell id="1" parent="0" />
        <mxCell id="ocgM2qB5vdDprt8gCR4s-26" value="Gate4.ai" style="rounded=0;whiteSpace=wrap;html=1;verticalAlign=top;fontSize=32;fillColor=#7B68EE;strokeColor=#6A5ACD;gradientColor=#9370DB;" parent="1" vertex="1">
          <mxGeometry x="110" y="150" width="560" height="410" as="geometry" />
        </mxCell>
        <mxCell id="ocgM2qB5vdDprt8gCR4s-22" value="&lt;font&gt;OIDP&lt;/font&gt;" style="rounded=1;whiteSpace=wrap;html=1;verticalAlign=top;fontSize=28;fillColor=#B22222;fontColor=#FFFFFF;strokeColor=#8B0000;" parent="1" vertex="1">
          <mxGeometry x="200" width="120" height="120" as="geometry" />
        </mxCell>
        <mxCell id="ocgM2qB5vdDprt8gCR4s-2" value="Web Browser" style="image;aspect=fixed;html=1;points=[];align=center;fontSize=16;image=img/lib/azure2/general/Browser.svg;imageBackground=none;labelBackgroundColor=default;textShadow=0;" parent="1" vertex="1">
          <mxGeometry x="30" y="300" width="65" height="52" as="geometry" />
        </mxCell>
        <mxCell id="ocgM2qB5vdDprt8gCR4s-3" value="AI Client" style="points=[];aspect=fixed;html=1;align=center;shadow=0;dashed=0;fillColor=#FF6A00;strokeColor=none;shape=mxgraph.alibaba_cloud.multimediaai;verticalAlign=bottom;spacingBottom=-20;fontSize=16;labelBackgroundColor=default;" parent="1" vertex="1">
          <mxGeometry x="20" y="440" width="60" height="59.1" as="geometry" />
        </mxCell>
        <mxCell id="ocgM2qB5vdDprt8gCR4s-4" value="Gateway" style="rounded=1;whiteSpace=wrap;html=1;verticalAlign=top;fontSize=16;fillColor=#008000;fontColor=#FFFFFF;strokeColor=#006400;" parent="1" vertex="1">
          <mxGeometry x="120" y="290" width="530" height="250" as="geometry" />
        </mxCell>
        <mxCell id="ocgM2qB5vdDprt8gCR4s-9" value="Portal" style="rounded=1;whiteSpace=wrap;html=1;verticalAlign=top;fontSize=16;fillColor=#4682B4;fontColor=#FFFFFF;strokeColor=#00008B;" parent="1" vertex="1">
          <mxGeometry x="120" y="194" width="530" height="70" as="geometry" />
        </mxCell>
        <mxCell id="ocgM2qB5vdDprt8gCR4s-19" value="" style="outlineConnect=0;dashed=0;verticalLabelPosition=bottom;verticalAlign=top;align=center;html=1;shape=mxgraph.aws3.add_on;fillColor=#759C3E;gradientColor=none;" parent="1" vertex="1">
          <mxGeometry x="235.25" y="70" width="49.5" height="27" as="geometry" />
        </mxCell>
        <mxCell id="ocgM2qB5vdDprt8gCR4s-25" value="&lt;font&gt;Billing&lt;/font&gt;" style="rounded=1;whiteSpace=wrap;html=1;verticalAlign=top;fontSize=28;fillColor=#B8860B;fontColor=#FFFFFF;strokeColor=#8B4513;" parent="1" vertex="1">
          <mxGeometry x="350" width="120" height="120" as="geometry" />
        </mxCell>
        <mxCell id="ocgM2qB5vdDprt8gCR4s-21" value="" style="shape=image;html=1;verticalAlign=top;verticalLabelPosition=bottom;labelBackgroundColor=#ffffff;imageAspect=0;aspect=fixed;image=https://cdn0.iconfinder.com/data/icons/business-startup-10/50/29-128.png" parent="1" vertex="1">
          <mxGeometry x="376" y="49.5" width="68" height="68" as="geometry" />
        </mxCell>
        <mxCell id="ocgM2qB5vdDprt8gCR4s-27" value="Routing" style="rounded=0;whiteSpace=wrap;html=1;fontSize=16;horizontal=0;" parent="1" vertex="1">
          <mxGeometry x="159.75" y="325.45" width="30" height="160" as="geometry" />
        </mxCell>
        <mxCell id="ocgM2qB5vdDprt8gCR4s-33" value="" style="endArrow=classic;html=1;rounded=0;entryX=0;entryY=0.25;entryDx=0;entryDy=0;" parent="1" source="ocgM2qB5vdDprt8gCR4s-2" target="2LIH8MT-0-WzAQpLcu-H-1" edge="1">
          <mxGeometry width="50" height="50" relative="1" as="geometry">
            <mxPoint x="520" y="430" as="sourcePoint" />
            <mxPoint x="570" y="380" as="targetPoint" />
          </mxGeometry>
        </mxCell>
        <mxCell id="ocgM2qB5vdDprt8gCR4s-34" value="" style="endArrow=classic;html=1;rounded=0;exitX=0.997;exitY=0.307;exitDx=0;exitDy=0;exitPerimeter=0;entryX=0;entryY=0.75;entryDx=0;entryDy=0;" parent="1" source="ocgM2qB5vdDprt8gCR4s-3" target="2LIH8MT-0-WzAQpLcu-H-1" edge="1">
          <mxGeometry width="50" height="50" relative="1" as="geometry">
            <mxPoint x="520" y="430" as="sourcePoint" />
            <mxPoint x="570" y="380" as="targetPoint" />
          </mxGeometry>
        </mxCell>
        <mxCell id="ocgM2qB5vdDprt8gCR4s-36" value="MCP ver.2024 Server" style="rounded=0;whiteSpace=wrap;html=1;fontSize=16;" parent="1" vertex="1">
          <mxGeometry x="224" y="367" width="110" height="35" as="geometry" />
        </mxCell>
        <mxCell id="ocgM2qB5vdDprt8gCR4s-37" value="MCP ver.2025 Server" style="rounded=0;whiteSpace=wrap;html=1;fontSize=16;" parent="1" vertex="1">
          <mxGeometry x="224" y="409" width="110" height="35" as="geometry" />
        </mxCell>
        <mxCell id="ocgM2qB5vdDprt8gCR4s-38" value="/discovering" style="rounded=0;whiteSpace=wrap;html=1;fontSize=16;" parent="1" vertex="1">
          <mxGeometry x="224" y="492" width="110" height="35" as="geometry" />
        </mxCell>
        <mxCell id="ocgM2qB5vdDprt8gCR4s-39" value="Sessions Manager" style="rounded=0;whiteSpace=wrap;html=1;horizontal=0;fontSize=16;" parent="1" vertex="1">
          <mxGeometry x="343.25" y="325.45" width="30" height="160" as="geometry" />
        </mxCell>
        <mxCell id="ocgM2qB5vdDprt8gCR4s-40" value="MCP ver 2024 Client" style="rounded=0;whiteSpace=wrap;html=1;fontSize=16;" parent="1" vertex="1">
          <mxGeometry x="444" y="367" width="110" height="35" as="geometry" />
        </mxCell>
        <mxCell id="ocgM2qB5vdDprt8gCR4s-41" value="MCP ver 2025 Client" style="rounded=0;whiteSpace=wrap;html=1;fontSize=16;" parent="1" vertex="1">
          <mxGeometry x="444" y="409" width="110" height="35" as="geometry" />
        </mxCell>
        <mxCell id="ocgM2qB5vdDprt8gCR4s-42" value="REST Client" style="rounded=0;whiteSpace=wrap;html=1;fontSize=16;" parent="1" vertex="1">
          <mxGeometry x="444" y="450.45" width="110" height="35" as="geometry" />
        </mxCell>
        <mxCell id="ocgM2qB5vdDprt8gCR4s-47" value="&lt;div&gt;* Users&lt;/div&gt;&lt;div&gt;* Subscriptions&lt;/div&gt;" style="text;html=1;align=left;verticalAlign=middle;whiteSpace=wrap;rounded=0;fontSize=16;" parent="1" vertex="1">
          <mxGeometry x="270" y="216.5" width="155" height="35" as="geometry" />
        </mxCell>
        <mxCell id="ocgM2qB5vdDprt8gCR4s-49" value="&lt;div&gt;* Keys&lt;/div&gt;&lt;div&gt;* Servers&lt;/div&gt;" style="text;html=1;align=left;verticalAlign=middle;whiteSpace=wrap;rounded=0;fontSize=16;" parent="1" vertex="1">
          <mxGeometry x="450" y="219" width="120" height="30" as="geometry" />
        </mxCell>
        <mxCell id="ocgM2qB5vdDprt8gCR4s-50" value="Transformation" style="rounded=0;whiteSpace=wrap;html=1;horizontal=0;fontSize=16;" parent="1" vertex="1">
          <mxGeometry x="557.25" y="325.45" width="30" height="160" as="geometry" />
        </mxCell>
        <mxCell id="ocgM2qB5vdDprt8gCR4s-51" value="Routing" style="rounded=0;whiteSpace=wrap;html=1;horizontal=0;fontSize=16;" parent="1" vertex="1">
          <mxGeometry x="375.25" y="325.45" width="30" height="160" as="geometry" />
        </mxCell>
        <mxCell id="ocgM2qB5vdDprt8gCR4s-52" value="Aggregation" style="rounded=0;whiteSpace=wrap;html=1;horizontal=0;fontSize=16;" parent="1" vertex="1">
          <mxGeometry x="407.25" y="325.45" width="30" height="160" as="geometry" />
        </mxCell>
        <mxCell id="ocgM2qB5vdDprt8gCR4s-53" value="Enrichment" style="rounded=0;whiteSpace=wrap;html=1;horizontal=0;fontSize=16;" parent="1" vertex="1">
          <mxGeometry x="594.25" y="325.45" width="30" height="160" as="geometry" />
        </mxCell>
        <mxCell id="ocgM2qB5vdDprt8gCR4s-54" value="Authorization" style="rounded=0;whiteSpace=wrap;html=1;fontSize=16;horizontal=0;" parent="1" vertex="1">
          <mxGeometry x="189.75" y="325.45" width="30" height="160" as="geometry" />
        </mxCell>
        <mxCell id="ocgM2qB5vdDprt8gCR4s-58" value="" style="endArrow=classic;startArrow=classic;html=1;rounded=0;" parent="1" source="ocgM2qB5vdDprt8gCR4s-4" target="ocgM2qB5vdDprt8gCR4s-9" edge="1">
          <mxGeometry width="50" height="50" relative="1" as="geometry">
            <mxPoint x="370" y="440" as="sourcePoint" />
            <mxPoint x="420" y="390" as="targetPoint" />
          </mxGeometry>
        </mxCell>
        <mxCell id="ocgM2qB5vdDprt8gCR4s-59" value="" style="endArrow=classic;html=1;rounded=0;entryX=0;entryY=0.5;entryDx=0;entryDy=0;" parent="1" source="ocgM2qB5vdDprt8gCR4s-53" target="ocgM2qB5vdDprt8gCR4s-10" edge="1">
          <mxGeometry width="50" height="50" relative="1" as="geometry">
            <mxPoint x="370" y="440" as="sourcePoint" />
            <mxPoint x="420" y="390" as="targetPoint" />
          </mxGeometry>
        </mxCell>
        <mxCell id="ocgM2qB5vdDprt8gCR4s-60" value="" style="endArrow=classic;html=1;rounded=0;entryX=0;entryY=0.5;entryDx=0;entryDy=0;" parent="1" source="ocgM2qB5vdDprt8gCR4s-53" target="ocgM2qB5vdDprt8gCR4s-13" edge="1">
          <mxGeometry width="50" height="50" relative="1" as="geometry">
            <mxPoint x="370" y="440" as="sourcePoint" />
            <mxPoint x="420" y="390" as="targetPoint" />
          </mxGeometry>
        </mxCell>
        <mxCell id="ocgM2qB5vdDprt8gCR4s-61" value="" style="endArrow=classic;html=1;rounded=0;entryX=0;entryY=0.5;entryDx=0;entryDy=0;" parent="1" source="ocgM2qB5vdDprt8gCR4s-53" target="ocgM2qB5vdDprt8gCR4s-16" edge="1">
          <mxGeometry width="50" height="50" relative="1" as="geometry">
            <mxPoint x="370" y="440" as="sourcePoint" />
            <mxPoint x="420" y="390" as="targetPoint" />
          </mxGeometry>
        </mxCell>
        <mxCell id="ocgM2qB5vdDprt8gCR4s-63" value="&lt;font&gt;Monitoring&lt;/font&gt;" style="rounded=1;whiteSpace=wrap;html=1;verticalAlign=top;fontSize=28;fillColor=#BA55D3;strokeColor=#8B008B;" parent="1" vertex="1">
          <mxGeometry x="490" width="120" height="120" as="geometry" />
        </mxCell>
        <mxCell id="ocgM2qB5vdDprt8gCR4s-62" value="" style="points=[];aspect=fixed;html=1;align=center;shadow=0;dashed=0;fillColor=#FF6A00;strokeColor=none;shape=mxgraph.alibaba_cloud.prometheus;" parent="1" vertex="1">
          <mxGeometry x="525.5500000000001" y="59.05" width="48.9" height="48.9" as="geometry" />
        </mxCell>
        <mxCell id="2LIH8MT-0-WzAQpLcu-H-1" value="SSL/TLS Termination" style="rounded=0;whiteSpace=wrap;html=1;fontSize=16;horizontal=0;" parent="1" vertex="1">
          <mxGeometry x="129.75" y="325.45" width="30" height="160" as="geometry" />
        </mxCell>
        <mxCell id="2LIH8MT-0-WzAQpLcu-H-5" value="A2A Server" style="rounded=0;whiteSpace=wrap;html=1;fontSize=16;" parent="1" vertex="1">
          <mxGeometry x="224" y="325.45" width="110" height="35" as="geometry" />
        </mxCell>
        <mxCell id="2LIH8MT-0-WzAQpLcu-H-6" value="A2A Client" style="rounded=0;whiteSpace=wrap;html=1;fontSize=16;" parent="1" vertex="1">
          <mxGeometry x="444" y="325.45" width="110" height="35" as="geometry" />
        </mxCell>
        <mxCell id="2LIH8MT-0-WzAQpLcu-H-10" value="" style="endArrow=classic;html=1;rounded=0;entryX=0;entryY=0.5;entryDx=0;entryDy=0;" parent="1" source="ocgM2qB5vdDprt8gCR4s-53" target="2LIH8MT-0-WzAQpLcu-H-7" edge="1">
          <mxGeometry width="50" height="50" relative="1" as="geometry">
            <mxPoint x="634" y="397" as="sourcePoint" />
            <mxPoint x="670" y="80" as="targetPoint" />
          </mxGeometry>
        </mxCell>
        <mxCell id="2LIH8MT-0-WzAQpLcu-H-11" value="" style="group" parent="1" vertex="1" connectable="0">
          <mxGeometry x="700" y="230" width="140" height="80" as="geometry" />
        </mxCell>
        <mxCell id="2LIH8MT-0-WzAQpLcu-H-7" value="MCP ver.2024" style="rounded=0;whiteSpace=wrap;html=1;fillColor=#32CD32;strokeColor=#006400;" parent="2LIH8MT-0-WzAQpLcu-H-11" vertex="1">
          <mxGeometry width="120" height="60" as="geometry" />
        </mxCell>
        <mxCell id="2LIH8MT-0-WzAQpLcu-H-8" value="MCP ver.2024" style="rounded=0;whiteSpace=wrap;html=1;fillColor=#32CD32;strokeColor=#006400;" parent="2LIH8MT-0-WzAQpLcu-H-11" vertex="1">
          <mxGeometry x="10" y="10" width="120" height="60" as="geometry" />
        </mxCell>
        <mxCell id="2LIH8MT-0-WzAQpLcu-H-9" value="&lt;div&gt;A2A Servers&lt;/div&gt;" style="rounded=0;whiteSpace=wrap;html=1;fillColor=#32CD32;strokeColor=#006400;" parent="2LIH8MT-0-WzAQpLcu-H-11" vertex="1">
          <mxGeometry x="20" y="20" width="120" height="60" as="geometry" />
        </mxCell>
        <mxCell id="2LIH8MT-0-WzAQpLcu-H-12" value="" style="group" parent="1" vertex="1" connectable="0">
          <mxGeometry x="700" y="329" width="140" height="80" as="geometry" />
        </mxCell>
        <mxCell id="ocgM2qB5vdDprt8gCR4s-10" value="MCP ver.2024" style="rounded=0;whiteSpace=wrap;html=1;fillColor=#32CD32;strokeColor=#006400;" parent="2LIH8MT-0-WzAQpLcu-H-12" vertex="1">
          <mxGeometry width="120" height="60" as="geometry" />
        </mxCell>
        <mxCell id="ocgM2qB5vdDprt8gCR4s-11" value="MCP ver.2024" style="rounded=0;whiteSpace=wrap;html=1;fillColor=#32CD32;strokeColor=#006400;" parent="2LIH8MT-0-WzAQpLcu-H-12" vertex="1">
          <mxGeometry x="10" y="10" width="120" height="60" as="geometry" />
        </mxCell>
        <mxCell id="ocgM2qB5vdDprt8gCR4s-12" value="MCP ver.2024&lt;div&gt;Servers&lt;/div&gt;" style="rounded=0;whiteSpace=wrap;html=1;fillColor=#32CD32;strokeColor=#006400;" parent="2LIH8MT-0-WzAQpLcu-H-12" vertex="1">
          <mxGeometry x="20" y="20" width="120" height="60" as="geometry" />
        </mxCell>
        <mxCell id="2LIH8MT-0-WzAQpLcu-H-13" value="" style="group" parent="1" vertex="1" connectable="0">
          <mxGeometry x="700" y="427" width="140" height="80" as="geometry" />
        </mxCell>
        <mxCell id="ocgM2qB5vdDprt8gCR4s-13" value="MCP ver.2024" style="rounded=0;whiteSpace=wrap;html=1;fillColor=#32CD32;strokeColor=#006400;" parent="2LIH8MT-0-WzAQpLcu-H-13" vertex="1">
          <mxGeometry width="120" height="60" as="geometry" />
        </mxCell>
        <mxCell id="ocgM2qB5vdDprt8gCR4s-14" value="MCP ver.2024" style="rounded=0;whiteSpace=wrap;html=1;fillColor=#32CD32;strokeColor=#006400;" parent="2LIH8MT-0-WzAQpLcu-H-13" vertex="1">
          <mxGeometry x="10" y="10" width="120" height="60" as="geometry" />
        </mxCell>
        <mxCell id="ocgM2qB5vdDprt8gCR4s-15" value="MCP ver.2025&lt;div&gt;Servers&lt;/div&gt;" style="rounded=0;whiteSpace=wrap;html=1;fillColor=#32CD32;strokeColor=#006400;" parent="2LIH8MT-0-WzAQpLcu-H-13" vertex="1">
          <mxGeometry x="20" y="20" width="120" height="60" as="geometry" />
        </mxCell>
        <mxCell id="2LIH8MT-0-WzAQpLcu-H-14" value="" style="group" parent="1" vertex="1" connectable="0">
          <mxGeometry x="700" y="525" width="140" height="80" as="geometry" />
        </mxCell>
        <mxCell id="ocgM2qB5vdDprt8gCR4s-16" value="MCP ver.2024" style="rounded=0;whiteSpace=wrap;html=1;fillColor=#32CD32;strokeColor=#006400;" parent="2LIH8MT-0-WzAQpLcu-H-14" vertex="1">
          <mxGeometry width="120" height="60" as="geometry" />
        </mxCell>
        <mxCell id="ocgM2qB5vdDprt8gCR4s-17" value="MCP ver.2024" style="rounded=0;whiteSpace=wrap;html=1;fillColor=#32CD32;strokeColor=#006400;" parent="2LIH8MT-0-WzAQpLcu-H-14" vertex="1">
          <mxGeometry x="10" y="10" width="120" height="60" as="geometry" />
        </mxCell>
        <mxCell id="ocgM2qB5vdDprt8gCR4s-18" value="REST API&lt;div&gt;Servers&lt;/div&gt;" style="rounded=0;whiteSpace=wrap;html=1;fillColor=#32CD32;strokeColor=#006400;" parent="2LIH8MT-0-WzAQpLcu-H-14" vertex="1">
          <mxGeometry x="20" y="20" width="120" height="60" as="geometry" />
        </mxCell>
        <mxCell id="VnLAZ1YdCDZ5EFsBHdoY-1" value="" style="image;aspect=fixed;perimeter=ellipsePerimeter;html=1;align=center;shadow=0;dashed=0;spacingTop=3;image=img/lib/active_directory/user.svg;" parent="1" vertex="1">
          <mxGeometry x="1.5" y="380.45" width="18.5" height="50" as="geometry" />
        </mxCell>
        <mxCell id="6LP2ceM4rrGrcbxaXxl9-2" value="" style="group" vertex="1" connectable="0" parent="1">
          <mxGeometry x="496" y="570" width="120" height="120" as="geometry" />
        </mxCell>
        <mxCell id="ocgM2qB5vdDprt8gCR4s-65" value="&lt;font style=&quot;font-size: 28px;&quot;&gt;Audit&lt;/font&gt;" style="rounded=1;whiteSpace=wrap;html=1;verticalAlign=top;fontSize=39;fillColor=#DAA520;strokeColor=#B8860B;" parent="6LP2ceM4rrGrcbxaXxl9-2" vertex="1">
          <mxGeometry width="120" height="120" as="geometry" />
        </mxCell>
        <mxCell id="ocgM2qB5vdDprt8gCR4s-64" value="" style="outlineConnect=0;dashed=0;verticalLabelPosition=bottom;verticalAlign=top;align=center;html=1;shape=mxgraph.aws3.hosted_zone;fillColor=#F58536;gradientColor=none;" parent="6LP2ceM4rrGrcbxaXxl9-2" vertex="1">
          <mxGeometry x="27.5" y="48.75" width="63" height="64.5" as="geometry" />
        </mxCell>
        <mxCell id="6LP2ceM4rrGrcbxaXxl9-3" value="" style="group" vertex="1" connectable="0" parent="1">
          <mxGeometry x="350" y="572" width="120" height="120" as="geometry" />
        </mxCell>
        <mxCell id="ocgM2qB5vdDprt8gCR4s-31" value="&lt;font style=&quot;font-size: 28px;&quot;&gt;Postgres&lt;/font&gt;" style="rounded=1;whiteSpace=wrap;html=1;verticalAlign=top;fontSize=39;fillColor=#1E90FF;strokeColor=#0000CD;fontColor=#FFFFFF;" parent="6LP2ceM4rrGrcbxaXxl9-3" vertex="1">
          <mxGeometry width="120" height="120" as="geometry" />
        </mxCell>
        <mxCell id="ocgM2qB5vdDprt8gCR4s-6" value="" style="image;aspect=fixed;html=1;points=[];align=center;fontSize=12;image=img/lib/azure2/databases/Azure_Database_PostgreSQL_Server.svg;" parent="6LP2ceM4rrGrcbxaXxl9-3" vertex="1">
          <mxGeometry x="36" y="52" width="48" height="64" as="geometry" />
        </mxCell>
        <mxCell id="6LP2ceM4rrGrcbxaXxl9-4" value="" style="group" vertex="1" connectable="0" parent="1">
          <mxGeometry x="200" y="573" width="120" height="120" as="geometry" />
        </mxCell>
        <mxCell id="ocgM2qB5vdDprt8gCR4s-29" value="&lt;font style=&quot;font-size: 28px;&quot;&gt;eMail&lt;/font&gt;" style="rounded=1;whiteSpace=wrap;html=1;verticalAlign=top;fontSize=39;fillColor=#C71585;strokeColor=#8B008B;fontColor=#FFFFFF;" parent="6LP2ceM4rrGrcbxaXxl9-4" vertex="1">
          <mxGeometry width="120" height="120" as="geometry" />
        </mxCell>
        <mxCell id="ocgM2qB5vdDprt8gCR4s-8" value="" style="html=1;verticalLabelPosition=bottom;align=center;labelBackgroundColor=#ffffff;verticalAlign=top;strokeWidth=2;strokeColor=#0080F0;shadow=0;dashed=0;shape=mxgraph.ios7.icons.mail;" parent="6LP2ceM4rrGrcbxaXxl9-4" vertex="1">
          <mxGeometry x="24" y="55" width="76" height="44.95" as="geometry" />
        </mxCell>
        <mxCell id="6LP2ceM4rrGrcbxaXxl9-5" value="Extra handlers" style="rounded=0;whiteSpace=wrap;html=1;fontSize=16;" vertex="1" parent="1">
          <mxGeometry x="224" y="452.05" width="110" height="35" as="geometry" />
        </mxCell>
      </root>
    </mxGraphModel>
  </diagram>
</mxfile>
